<?xml version="1.0" encoding="utf-8"?>
<!-- Generator: Adobe Illustrator 25.0.1, SVG Export Plug-In . SVG Version: 6.00 Build 0)  -->
<svg version="1.1" id="Layer_1" xmlns="http://www.w3.org/2000/svg" xmlns:xlink="http://www.w3.org/1999/xlink" x="0px" y="0px"
	 viewBox="0 0 300 300" style="enable-background:new 0 0 300 300;" xml:space="preserve">
<style type="text/css">
	.st0{fill:none;stroke:#000000;stroke-width:13.995;stroke-miterlimit:10;}
	.st1{stroke:#000000;stroke-width:13.995;stroke-miterlimit:10;}
</style>
<g>
	<path class="st0" d="M180.1,89c-0.7-0.9-2.6-1.7-4.1-1.7h-52c-1.5,0-3.3,0.8-4.1,1.7l-25.2,32.1c-0.7,0.9-0.1,1.7,1.4,1.7h107.9
		c1.5,0,2.1-0.8,1.4-1.7L180.1,89z"/>
</g>
<g>
	<path class="st0" d="M208,124.5c-0.7-0.9-2.6-1.7-4.1-1.7H96c-1.5,0-3.3,0.8-4.1,1.7l-25.2,32.1c-0.7,0.9-0.1,1.7,1.4,1.7h163.8
		c1.5,0,2.1-0.8,1.4-1.7L208,124.5z"/>
</g>
<g>
	<path class="st0" d="M68.1,158.4c-1.5,0-3.3,0.8-4.1,1.7l-25.2,32.1c-0.7,0.9-0.1,1.7,1.4,1.7h219.6c1.5,0,2.1-0.8,1.4-1.7
		L236,160.1c-0.7-0.9-2.6-1.7-4.1-1.7H68.1z"/>
</g>
<g>
	<path class="st1" d="M263.9,195.7c-0.7-0.9-2.6-1.7-4.1-1.7H40.2c-1.5,0-3.3,0.8-4.1,1.7l-24.2,30.8c-0.7,0.9-1.4,2-1.4,2.4
		s1.2,0.7,2.7,0.7h273.4c1.5,0,2.7-0.3,2.7-0.7s-0.6-1.4-1.4-2.4L263.9,195.7z"/>
	<path class="st1" d="M263.9,195.7c-0.7-0.9-2.6-1.7-4.1-1.7H40.2c-1.5,0-3.3,0.8-4.1,1.7l-24.2,30.8c-0.7,0.9-1.4,2-1.4,2.4
		s1.2,0.7,2.7,0.7h273.4c1.5,0,2.7-0.3,2.7-0.7s-0.6-1.4-1.4-2.4L263.9,195.7z"/>
</g>
<g>
	<path class="st0" d="M176,87.2c1.5,0,2.1-0.8,1.4-1.7l-25.2-32.1c-0.7-1-1.7-1.7-2.2-1.7c-0.4,0-1.4,0.8-2.2,1.7l-25.2,32.1
		c-0.7,0.9-0.1,1.7,1.4,1.7H176z"/>
</g>
</svg>
