<?xml version="1.0" encoding="utf-8"?>
<!-- Generator: Adobe Illustrator 25.0.1, SVG Export Plug-In . SVG Version: 6.00 Build 0)  -->
<svg version="1.1" id="Layer_1" xmlns="http://www.w3.org/2000/svg" xmlns:xlink="http://www.w3.org/1999/xlink" x="0px" y="0px"
	 viewBox="0 0 300 300" style="enable-background:new 0 0 300 300;" xml:space="preserve">
<style type="text/css">
	.st0{fill:none;stroke:#000000;stroke-width:13;stroke-miterlimit:10;}
</style>
<g>
	<path class="st0" d="M147.32,51.14c-0.16-0.28-0.43-0.28-0.59,0s-0.03,0.51,0.29,0.51S147.48,51.42,147.32,51.14z"/>
</g>
<g>
	<path class="st0" d="M249.92,228.85c-0.21-0.36-0.38-0.36-0.38,0s0.17,0.66,0.38,0.66S250.13,229.22,249.92,228.85z"/>
</g>
<g>
	<path class="st0" d="M44.13,228.85c-0.21,0.36-0.21,0.66,0,0.66s0.38-0.3,0.38-0.66S44.34,228.49,44.13,228.85z"/>
</g>
<g>
	<path d="M166.15,87.22c1.1,0,1.55-0.78,1-1.73l-18.54-32.11c-0.55-0.95-1.26-1.73-1.59-1.73s-1.04,0.78-1.59,1.73L126.9,85.49
		c-0.55,0.95-0.1,1.73,1,1.73H166.15z"/>
	<path class="st0" d="M166.15,87.22c1.1,0,1.55-0.78,1-1.73l-18.54-32.11c-0.55-0.95-1.26-1.73-1.59-1.73s-1.04,0.78-1.59,1.73
		L126.9,85.49c-0.55,0.95-0.1,1.73,1,1.73H166.15z"/>
</g>
<g>
	<path class="st0" d="M169.15,88.96c-0.55-0.95-1.9-1.73-3-1.73H127.9c-1.1,0-2.45,0.78-3,1.73l-18.54,32.11
		c-0.55,0.95-0.1,1.73,1,1.73h79.33c1.1,0,1.55-0.78,1-1.73L169.15,88.96z"/>
</g>
<g>
	<path class="st0" d="M189.69,124.53c-0.55-0.95-1.9-1.73-3-1.73h-79.33c-1.1,0-2.45,0.78-3,1.73l-18.54,32.11
		c-0.55,0.95-0.1,1.73,1,1.73h120.4c1.1,0,1.55-0.78,1-1.73L189.69,124.53z"/>
</g>
<g>
	<path class="st0" d="M86.83,158.37c-1.1,0-2.45,0.78-3,1.73l-18.54,32.11c-0.55,0.95-0.1,1.73,1,1.73h161.48
		c1.1,0,1.55-0.78,1-1.73l-18.54-32.11c-0.55-0.95-1.9-1.73-3-1.73H86.83z"/>
</g>
<g>
	<path class="st0" d="M230.77,195.68c-0.55-0.95-1.9-1.73-3-1.73H66.29c-1.1,0-2.45,0.78-3,1.73l-17.77,30.78
		c-0.55,0.95-1,2.03-1,2.39s0.9,0.66,2,0.66h201.03c1.1,0,2-0.3,2-0.66s-0.45-1.44-1-2.39L230.77,195.68z"/>
</g>
</svg>
